<?xml version="1.0" encoding="utf-8"?>
<!-- Generator: Adobe Illustrator 25.0.1, SVG Export Plug-In . SVG Version: 6.00 Build 0)  -->
<svg version="1.1" xmlns="http://www.w3.org/2000/svg" x="0px" y="0px" viewBox="0 0 64 64" style="enable-background:new 0 0 64 64;" xml:space="preserve">
<style type="text/css">
	.st0{fill:#21A2EE;}
	.st1{fill:#FFFFFF;}
</style>
<path class="st0" d="M48,64H16C7.2,64,0,56.8,0,48V16C0,7.2,7.2,0,16,0h32c8.8,0,16,7.2,16,16v32C64,56.8,56.8,64,48,64z"/>
<g>
	<g>
		<path class="st1" d="M32,6C17.7,6,6,17.7,6,32c0,14.3,11.7,26,26,26c14.3,0,26-11.7,26-26C58,17.7,46.3,6,32,6z M19,38.9
			c-1.2,0-2.2-1-2.2-2.2c0-1.2,1-2.2,2.2-2.2c1.2,0,2.2,1,2.2,2.2C21.3,37.9,20.2,38.9,19,38.9z M34.1,47.6c-1.2,0-2.2-1-2.2-2.2
			s1-2.2,2.2-2.2c1.2,0,2.2,1,2.2,2.2S35.3,47.6,34.1,47.6z M43.4,50.8c0.4-4.2-0.3-8.4-2.3-12.2l5.2-3c0.9-0.5,1.2-1.7,0.7-2.6
			s-1.7-1.2-2.6-0.7l-5.3,3.1c-1.6-2-3.7-3.8-6.1-5.2c-2.6-1.5-5.4-2.4-8.4-2.7l0-6.5c0,0,0,0,0,0c0-1.1-0.9-1.9-1.9-1.9
			c-1.1,0-1.9,0.9-1.9,1.9l0,6.5c-3.8,0.3-7.5,1.6-10.6,3.8C10.5,19.4,20.2,10,32,10c12.1,0,22,9.9,22,22C54,40,49.7,47,43.4,50.8z"
			/>
	</g>
</g>
</svg>
